<?xml version="1.0" encoding="UTF-8"?><svg xmlns="http://www.w3.org/2000/svg" viewBox="0 0 806.22 656.51"><defs><style>.k{stroke:#2e2532;stroke-linecap:round;stroke-linejoin:round;stroke-width:24px;}.k,.l{fill:none;}.l{opacity:.2;stroke:#f4ac32;stroke-miterlimit:10;stroke-width:80px;}.m{opacity:.6;}.m,.n{fill:#f4ac32;}.n{opacity:.42;}</style></defs><g id="a"><circle class="n" cx="411.65" cy="328.25" r="328.25"/><circle class="m" cx="715.44" cy="205.43" r="90.79"/><circle class="m" cx="123.52" cy="463.23" r="123.52"/><circle class="l" cx="411.65" cy="328.25" r="208.82"/><circle class="m" cx="612.65" cy="69.25" r="45.39"/><circle class="m" cx="247.04" cy="611.11" r="45.39"/></g><g id="b"><g><path id="c" class="k" d="M538.55,97.11c-2.89-10.55-12.48-17.86-23.41-17.86h-242.98c-10.93,0-20.52,7.31-23.41,17.86-13.66,49.72-51.1,186.14-51.1,186.14h391.99s-37.44-136.43-51.1-186.14h0Z"/><path id="d" class="k" d="M644.53,355.25c-.94-5.52-2.46-10.93-4.55-16.15-4.7-11.77-11.4-28.51-16.24-40.58-3.68-9.22-12.61-15.26-22.54-15.26H186.09c-9.92,0-18.85,6.05-22.54,15.26-4.84,12.07-11.53,28.81-16.24,40.58-3.74,9.35-5.66,19.32-5.66,29.39v58.48c0,13.42,10.87,24.29,24.29,24.29H441.65"/><path id="e" class="k" d="M148.65,350.25h51.88c11.11,0,21.26,6.28,26.23,16.21,5.92,11.83,12.9,25.79,12.9,25.79"/><path id="f" class="k" d="M201.65,266.25s-20.29-42-46-42"/><path id="g" class="k" d="M589.65,266.25s20.29-42,46.01-42"/><path id="h" class="k" d="M267.65,457.25h-84v44.16c0,5.78,2.3,11.34,6.4,15.44,4.1,4.09,9.66,6.4,15.44,6.4h40.32c5.78,0,11.34-2.3,15.44-6.4,4.09-4.1,6.4-9.66,6.4-15.44v-44.16Z"/><path id="i" class="k" d="M681.65,391.25c0-19.88-16.12-36-36-36h-120c-19.88,0-36,16.12-36,36v84.61c0,35.44,20.78,67.57,53.1,82.09,22.19,9.98,42.9,19.3,42.9,19.3,0,0,20.71-9.31,42.9-19.3,32.32-14.52,53.1-46.66,53.1-82.09v-84.61Z"/><path id="j" class="k" d="M546.65,460.23l30,24,48-42"/></g></g></svg>