<?xml version="1.0" encoding="UTF-8"?><svg xmlns="http://www.w3.org/2000/svg" viewBox="0 0 806.22 656.51"><defs><style>.d{fill:#2e2532;}.e{fill:none;opacity:.2;stroke:#f4ac32;stroke-miterlimit:10;stroke-width:80px;}.f{opacity:.6;}.f,.g{fill:#f4ac32;}.g{opacity:.42;}</style></defs><g id="a"><g><circle class="g" cx="411.65" cy="328.25" r="328.25"/><circle class="f" cx="715.44" cy="205.43" r="90.79"/><circle class="f" cx="123.52" cy="463.23" r="123.52"/><circle class="e" cx="411.65" cy="328.25" r="208.82"/><circle class="f" cx="612.65" cy="69.25" r="45.39"/><circle class="f" cx="247.04" cy="611.11" r="45.39"/></g></g><g id="b"><g id="c"><path class="d" d="M199.44,386.46c17.43,0,33.22,7.07,44.65,18.5,11.43,11.43,18.5,27.21,18.5,44.65s-7.07,33.22-18.5,44.65c-11.43,11.43-27.21,18.5-44.65,18.5s-33.22-7.07-44.65-18.5c-11.43-11.43-18.5-27.21-18.5-44.65s7.07-33.22,18.5-44.65c11.43-11.43,27.21-18.5,44.65-18.5Zm24.46,38.68c-6.26-6.26-14.91-10.13-24.46-10.13s-18.2,3.87-24.46,10.13c-6.26,6.26-10.13,14.91-10.13,24.46s3.87,18.2,10.13,24.46c6.26,6.26,14.91,10.13,24.46,10.13s18.2-3.87,24.46-10.13c6.26-6.26,10.13-14.91,10.13-24.46s-3.87-18.2-10.13-24.46Z"/><path class="d" d="M607.5,386.46c17.43,0,33.22,7.07,44.65,18.5,11.43,11.43,18.5,27.21,18.5,44.65s-7.07,33.22-18.5,44.65c-11.43,11.43-27.21,18.5-44.65,18.5s-33.22-7.07-44.65-18.5c-11.43-11.43-18.5-27.21-18.5-44.65s7.07-33.22,18.5-44.65c11.43-11.43,27.21-18.5,44.65-18.5Zm24.46,38.68c-6.26-6.26-14.91-10.13-24.46-10.13s-18.2,3.87-24.46,10.13c-6.26,6.26-10.13,14.91-10.13,24.46s3.87,18.2,10.13,24.46c6.26,6.26,14.91,10.13,24.46,10.13s18.2-3.87,24.46-10.13c6.26-6.26,10.13-14.91,10.13-24.46s-3.87-18.2-10.13-24.46Z"/><path class="d" d="M111.19,271.72H695.75c13.31,0,25.56,4.67,34.57,12.18,9.74,8.12,15.79,19.49,15.79,32.17v84.2c0,12.67-6.05,24.05-15.79,32.17-9.02,7.51-21.27,12.18-34.57,12.18h-25.3c-.82-10.44-4.17-20.16-9.45-28.55h34.76c6.54,0,12.33-2.1,16.39-5.49,3.34-2.78,5.41-6.44,5.41-10.31v-84.2c0-3.86-2.07-7.52-5.41-10.31-4.06-3.38-9.85-5.49-16.39-5.49H111.19c-6.54,0-12.33,2.1-16.39,5.49-3.34,2.78-5.41,6.44-5.41,10.31v84.2c0,3.86,2.07,7.52,5.41,10.31,4.06,3.38,9.85,5.49,16.39,5.49h34.76c-5.28,8.39-8.63,18.12-9.45,28.55h-25.3c-13.31,0-25.56-4.67-34.57-12.18-9.74-8.12-15.79-19.49-15.79-32.17v-84.2c0-12.67,6.05-24.05,15.79-32.17,9.02-7.51,21.27-12.18,34.57-12.18h0Zm433.36,172.89H262.39c-.82-10.44-4.17-20.16-9.45-28.55h301.06c-5.28,8.39-8.63,18.12-9.45,28.55h0Z"/><path class="d" d="M121.22,276.79c-5.08,5.98-4.36,14.94,1.62,20.02,5.98,5.08,14.94,4.36,20.02-1.62l106.23-124.83h209.37l141.43,121.45c5.97,5.11,14.96,4.41,20.08-1.56,5.11-5.98,4.41-14.96-1.56-20.08l-144.66-124.22c-2.58-2.56-6.13-4.14-10.06-4.14H242.59c-4.04,0-8.05,1.71-10.87,5.02l10.87,9.25-10.82-9.2-110.55,129.9h0Z"/><polygon class="d" points="384.87 170.53 384.87 285.99 356.32 285.99 356.32 170.53 384.87 170.53"/><path class="d" d="M674.73,327.28c-7.88,0-14.28,6.39-14.28,14.28s6.39,14.28,14.28,14.28h42.83c7.88,0,14.28-6.39,14.28-14.28s-6.39-14.28-14.28-14.28h-42.83Z"/><path class="d" d="M89.39,327.28c-7.88,0-14.28,6.39-14.28,14.28s6.39,14.28,14.28,14.28h42.83c7.88,0,14.28-6.39,14.28-14.28s-6.39-14.28-14.28-14.28h-42.83Z"/></g></g></svg>