<?xml version="1.0" encoding="UTF-8"?><svg xmlns="http://www.w3.org/2000/svg" viewBox="0 0 571.96 768"><defs><style>.c{opacity:.78;}.c,.d,.e,.f{fill:#f4ac32;}.d{opacity:.39;}.e{opacity:.6;}.g{opacity:.36;}</style></defs><g id="a"><g><g class="g"><path class="f" d="M571.96,0V768c-269.19-22.71-480.3-175.47-480.3-445.5C91.65,182.77,149.98,75.19,243.96,0h328Z"/></g><circle class="e" cx="154.3" cy="80.03" r="47.57"/><circle class="d" cx="469.28" cy="136.29" r="82.95"/><path class="d" d="M571.96,670.55c-5.64,2-12.81,3.48-19.14,3.48-29.79,0-53.95-24.15-53.95-53.95s24.15-53.95,53.95-53.95c6.8,0,13.15,1.18,19.14,3.48"/><circle class="e" cx="130.52" cy="522.63" r="130.52"/><path class="c" d="M571.96,619.5c-140.96,0-255.23-114.27-255.23-255.23s114.27-255.23,255.23-255.23"/></g></g><g id="b"/></svg>