<?xml version="1.0" encoding="UTF-8"?><svg id="a" xmlns="http://www.w3.org/2000/svg" viewBox="0 0 805.36 366.77"><defs><style>.b{fill:#f4ac32;}</style></defs><path class="b" d="M712.14,88.15c-6.16-3.12-12.54-5.86-18.44-9.41-3.1-1.87-6.2-4.66-7.87-7.8-6.66-12.45-12.74-25.22-19.09-37.85-6.24-12.42-16.44-18.56-30.24-18.59-36.67-.06-73.33-.07-110,0-13.81,.03-23.95,6.25-30.16,18.7-5.45,10.92-11.21,21.7-16.25,32.81-2.5,5.51-6.2,8.73-11.79,10.26-2.01,.55-3.97,1.28-5.99,1.79-15.09,3.83-30.24,7.45-45.28,11.48-13.82,3.7-22.93,15.38-23.19,29.68-.24,13.5-.26,27.02,.03,40.52,.31,14.17,9.72,25.94,23.54,29.34,4.6,1.13,9.55,1.16,14.34,1.14,3.25-.02,4.65,1.03,5.92,4.08,7.49,18.05,20.32,30.74,39.12,36.6,24.51,7.64,47.17-5.41,52.83-30.1,.75-3.26,1.04-6.63,1.63-10.48h4.78c17.37,0,34.74,.1,52.1-.08,3.56-.04,5.3,.94,6.69,4.39,6.42,15.93,17.61,27.53,33.41,34.3,26.15,11.2,51.85-1.12,58.62-27.94,.85-3.37,1.16-6.88,1.78-10.69,3.38,0,6.58,.1,9.78-.02,18.74-.7,31.64-13.48,32.06-32.22,.3-13.66,.26-27.34,0-41-.26-13.2-6.46-22.93-18.31-28.93Zm-206.06,106.33c-1.82,10.32-9.8,15.59-20.1,13.3-15.79-3.53-28.62-19.69-28.72-36.19-.09-14.88,10.59-22.41,24.53-17.3,15.71,5.77,27.06,24.54,24.29,40.19Zm133.02,12.15c-14.11-5.1-24.96-20.43-24.94-35.22,.02-14.56,10.65-22.08,24.32-17.21,13.97,4.97,24.9,20.38,24.98,35.19,.07,15.1-10.18,22.36-24.35,17.23Zm66.69-49.27c-.03,5.66-2.65,8.01-8.23,8.44-8.9,.69-15.23-.28-20.67-9.99-9.48-16.91-25.27-26.88-45.34-27.58-20.64-.73-36.78,12.76-40.7,33.1-.27,1.4-.59,2.8-.94,4.46-20.77,0-41.35,.06-61.92-.15-1.28-.01-2.97-1.99-3.74-3.43-9.21-17.21-22.6-29.24-42.08-33.12-24.34-4.85-44.66,9.65-48.66,34.15-.1,.63-.24,1.25-.48,2.46-2.79,0-5.66,.32-8.44-.07-4.28-.6-6.39-3.5-6.41-7.74-.05-12.38-.04-24.77,0-37.15,0-4.07,2.09-6.73,5.97-7.74,18.81-4.86,37.64-9.67,56.48-14.4,1.67-.42,3.52-.24,5.28-.24,43.91-.01,87.82,0,131.73-.02,1.93,0,3.89,.1,5.78-.21,5.84-.97,10.13-6.47,9.91-12.46-.22-6.02-4.82-11.03-10.85-11.6-2.39-.23-4.82-.14-7.23-.14-35.22,0-70.45,0-105.67,0h-6.17c5.66-11.14,10.77-21.62,16.39-31.81,.89-1.61,4.06-2.75,6.19-2.76,36.99-.17,73.99-.1,110.98-.16,4.16,0,6.43,2.13,8.14,5.59,6.27,12.67,12.78,25.21,18.91,37.95,3.95,8.2,9.85,14.09,18.09,17.9,6.26,2.9,12.35,6.18,18.55,9.21,3.55,1.74,5.22,4.39,5.19,8.43-.11,13.03,0,26.06-.06,39.08Z"/><path class="b" d="M696.11,24.71c15.92,.12,31.85,.03,47.77,.03,15.92,0,31.85,.05,47.77-.02,8.32-.04,13.67-4.96,13.69-12.31,.02-7.21-5.09-12.31-13.16-12.34-32.17-.12-64.34-.07-96.51-.02-5.2,0-9.39,2.16-11.79,6.98-4.23,8.5,1.99,17.59,12.23,17.67Z"/><path class="b" d="M791.65,61.53c8.32-.03,13.68-4.89,13.7-12.25,.01-7.26-5.02-12.19-13.18-12.23-23.8-.13-47.6-.08-71.41,0-2.19,0-4.54,.41-6.54,1.27-5.27,2.27-7.83,7.79-6.66,13.56,1.14,5.64,5.9,9.56,12.2,9.61,12.22,.11,24.45,.03,36.67,.04,11.74,0,23.48,.04,35.22,0Z"/><path class="b" d="M793.31,74.01c-12.35-.18-24.7-.18-37.04,0-7.18,.1-12.14,5.36-12.09,12.23,.05,6.86,5.07,11.89,12.29,12.06,5.93,.14,11.87,.03,17.8,.04s11.87,0,17.8,0c.32,0,.64,0,.96-.01,7.24-.29,12.26-5.19,12.33-12.05,.06-6.9-4.86-12.16-12.05-12.27Z"/></svg>