<?xml version="1.0" encoding="UTF-8"?><svg xmlns="http://www.w3.org/2000/svg" viewBox="0 0 806.22 656.51"><defs><style>.k{stroke:#2e2532;stroke-linecap:round;stroke-linejoin:round;stroke-width:24px;}.k,.l{fill:none;}.l{opacity:.2;stroke:#f4ac32;stroke-miterlimit:10;stroke-width:80px;}.m{opacity:.6;}.m,.n{fill:#f4ac32;}.n{opacity:.42;}</style></defs><g id="a"><g><circle class="n" cx="411.65" cy="328.25" r="328.25"/><circle class="m" cx="715.44" cy="205.43" r="90.79"/><circle class="m" cx="123.52" cy="463.23" r="123.52"/><circle class="l" cx="411.65" cy="328.25" r="208.82"/><circle class="m" cx="612.65" cy="69.25" r="45.39"/><circle class="m" cx="247.04" cy="611.11" r="45.39"/></g></g><g id="b"><path id="c" class="k" d="M467.45,118.98s-169.31-19.56-254.44-29.4c-26.34-3.05-50.15,15.84-53.2,42.17-4.16,36.01-9.16,79.27-9.16,79.27"/><path id="d" class="k" d="M200.12,189.6s2.08-17.89,3.86-33.38c.68-5.9,3.68-11.3,8.34-14.99,4.66-3.7,10.58-5.39,16.49-4.7,16.36,1.88,35.71,4.13,35.71,4.13"/><path id="e" class="k" d="M658.54,174.16c-2.11-12.55-9.13-23.76-19.5-31.14s-23.26-10.34-35.81-8.22c-104.39,17.58-353.39,59.52-457.79,77.1-12.55,2.11-23.75,9.12-31.13,19.5-7.38,10.37-10.34,23.24-8.23,35.81,11.4,67.64,32.22,191.24,43.61,258.9,2.11,12.55,9.13,23.75,19.5,31.13s23.26,10.34,35.81,8.23c104.39-17.58,353.39-59.52,457.79-77.1,12.55-2.12,23.75-9.13,31.13-19.5,7.38-10.38,10.34-23.26,8.23-35.81-11.4-67.64-32.22-191.26-43.61-258.9h0Z"/><path id="f" class="k" d="M253.8,511.79s-18.01,3.04-33.88,5.71c-6.28,1.06-12.72-.42-17.9-4.12s-8.69-9.29-9.76-15.56c-2.52-15-5.32-31.58-5.32-31.58M554.42,188.46s18.01-3.04,33.88-5.7c6.28-1.07,12.72,.42,17.9,4.1,5.18,3.7,8.69,9.3,9.76,15.58,2.52,14.99,5.32,31.57,5.32,31.57m-460.38,77.54s-2.8-16.58-5.32-31.58c-1.06-6.28,.42-12.72,4.12-17.9,3.68-5.18,9.29-8.69,15.56-9.74,15.86-2.68,33.88-5.71,33.88-5.71"/><path id="g" class="k" d="M647.33,388.7s2.8,16.58,5.32,31.57c1.06,6.28-.42,12.72-4.12,17.9-3.68,5.18-9.29,8.69-15.56,9.76-15.86,2.66-33.88,5.7-33.88,5.7"/><path id="h" class="k" d="M418.76,302.21c-6.17-5.86-14.93-8.84-23.95-7.33-15.25,2.57-25.55,17.04-22.98,32.28s17.04,25.54,32.28,22.97c15.24-2.57,29.71,7.73,32.28,22.97,2.57,15.25-7.73,29.71-22.98,32.28-9.02,1.52-17.78-1.48-23.95-7.33"/><path id="i" class="k" d="M394.81,294.88l-3.73-22.09"/><path id="j" class="k" d="M417.14,427.47l-3.73-22.09"/></g></svg>