<?xml version="1.0" encoding="UTF-8"?><svg id="a" xmlns="http://www.w3.org/2000/svg" viewBox="0 0 805.36 366.77"><defs><style>.b{fill:#f4ac32;}</style></defs><path class="b" d="M243.19,64.54c-3.15-8.69-7.95-12.19-17.08-12.21-26.3-.04-52.6-.04-78.9,0-9.27,.01-14.13,3.65-17.17,12.57-2.45,7.2-4.91,14.39-7.34,21.6-4.64,13.8,2.19,23.43,16.64,23.44,15.83,.02,31.66,0,47.49,0,15.95,0,31.91,.02,47.86,0,14.17-.02,21.23-9.98,16.48-23.24-2.65-7.4-5.32-14.78-7.99-22.17Zm-98.57,23.82c1.54-4.62,2.85-8.91,4.47-13.07,.31-.81,1.81-1.64,2.76-1.65,23.18-.09,46.36-.09,69.53,0,1,0,2.57,.71,2.89,1.49,1.74,4.24,3.17,8.6,4.82,13.24h-84.47Z"/><path class="b" d="M340.85,117.88c-.18-12.75-6.05-22.17-17.44-27.99-6.88-3.52-13.95-6.7-20.63-10.55-2.73-1.57-5.42-4.13-6.87-6.9-6.77-12.93-13.17-26.06-19.58-39.18-6.17-12.63-16.24-18.83-30.19-18.83-37.05,0-74.11,.02-111.16-.01-13.98-.01-24.03,6.13-30.23,18.75-5.95,12.1-12.21,24.04-18.01,36.21-2.31,4.85-5.66,7.44-10.83,8.66-17.33,4.1-34.61,8.46-51.88,12.81C10.45,94.27,.99,104.9,.43,118.84c-.59,14.6-.56,29.27,.06,43.87,.58,13.62,10.44,24.54,23.83,27.19,4.83,.96,9.92,.78,14.89,.73,2.73-.03,4.04,.75,5.28,3.33,7.7,16.02,20.4,25.39,38.21,26.64,19.66,1.39,36.36-9.07,44.71-27.11,.48-1.03,1.41-2.61,2.17-2.63,6.66-.21,13.33-.12,20.13-.12v75.05c-2.44-2.05-4.2-3.58-6.01-5.06-4.93-4.02-9.8-8.13-14.85-11.99-3.45-2.63-7.42-3.93-11.9-3.64-14.87,.99-25.54,8.21-31.15,21.99-5.62,13.81-3.07,26.48,7.22,37.38,18.09,19.16,36.27,38.25,54.33,57.45,3.13,3.33,6.7,4.86,11.25,4.84,17.84-.1,35.68-.04,53.52-.04,22.08,0,44.17,.02,66.25-.01,7.84-.01,12.42-4,12.48-11.32,.14-17.26,.41-34.53-.12-51.77-.55-17.69-8.7-30.47-25.65-37.33-17.09-6.92-33.91-14.5-50.89-21.67-2.3-.97-3.14-2.15-3.1-4.7,.16-10.25,.06-20.51,.08-30.76,0-.93,.13-1.86,.22-3.17,.77,.58,1.17,.83,1.52,1.15,24.72,23.08,59.44,16.42,74.35-14.17,.52-1.08,2.33-2.1,3.57-2.15,6.11-.22,12.22-.07,18.34-.11,18.47-.12,31.4-12.7,31.71-31.18,.23-13.88,.19-27.76,0-41.64ZM85.97,199.55c-13.39,.09-24.51-11.06-24.48-24.54,.02-13.07,10.98-24.05,24.09-24.14,13.35-.1,24.37,10.8,24.39,24.12,.03,13.44-10.76,24.48-24,24.57Zm172.28,87.06c6.59,2.76,10.64,7.54,10.86,14.37,.47,14.58,.14,29.19,.14,44.27h-4.44c-33.3,0-66.6-.04-99.9,.07-2.89,0-4.8-.92-6.74-2.98-16.51-17.56-32.98-35.16-49.78-52.43-7.31-7.52-3.45-19.71,4.79-22.6,2.44-.86,4.41-.79,6.5,1.02,6.23,5.39,12.46,10.8,18.97,15.83,3.82,2.95,7.94,5.73,12.34,7.64,10.72,4.65,20.21-1.81,20.22-13.44,.03-34.88-.06-69.76,.12-104.64,.02-3.48,.82-7.31,2.45-10.34,3.23-6,11.07-5.73,14.04,.44,1.4,2.91,2.02,6.47,2.05,9.74,.16,24.88,.19,49.76,.02,74.64-.05,6.53,2.65,10.43,8.58,12.92,19.98,8.4,39.82,17.13,59.81,25.5Zm-12.9-87.06c-13.37,.04-24.49-11.22-24.36-24.65,.13-13.15,11.03-23.99,24.17-24.04,13.35-.05,24.27,10.85,24.28,24.22,.01,13.42-10.83,24.43-24.09,24.47Zm74.18-40.7c-.02,6.83-3.55,10.53-10.25,10.64-6.22,.1-12.44,.02-18.63,.02-4.05-20.27-15.22-34.14-35.3-38.65-20.87-4.7-37.28,3.36-49.43,20.99-8.47-11.82-19.84-16.8-33.66-12.74-14.41,4.23-20.34,15.84-22.36,30.15h-18.77c-.68-2.68-1.22-5.48-2.1-8.18-6.61-20.3-25.42-32.68-47.43-31.31-19.24,1.2-36.58,16.73-40.38,36.51-.54,2.83-1.63,3.21-4.12,3.3-10.99,.41-16.34-1.17-15.69-15.52,.47-10.36,.09-20.76,.09-31.13,0-7.1,2.25-10.05,8.99-11.73,17.28-4.31,34.55-8.68,51.87-12.86,10.37-2.5,17.88-8.33,22.6-17.95,6.17-12.54,12.62-24.95,18.73-37.52,2.35-4.83,5.66-7.05,11.14-7.03,37.18,.13,74.36,.12,111.53,0,5.31-.02,8.63,2.18,10.9,6.84,6.45,13.24,13.11,26.38,19.56,39.62,3.53,7.25,8.76,12.62,16.03,16.12,6.85,3.3,13.56,6.89,20.41,10.19,4.3,2.07,6.33,5.25,6.3,10.07-.1,13.38-.01,26.76-.04,40.14Z"/></svg>